<svg width="15" height="14" viewBox="0 0 15 14" fill="none" xmlns="http://www.w3.org/2000/svg">
<path fill-rule="evenodd" clip-rule="evenodd" d="M4.9038 0.701776C5.01672 0.47592 5.24757 0.333252 5.50008 0.333252H9.50008C9.75259 0.333252 9.98344 0.47592 10.0964 0.701776L10.9121 2.33325H13.1667C14.0872 2.33325 14.8334 3.07944 14.8334 3.99992V11.9999C14.8334 12.9204 14.0872 13.6666 13.1667 13.6666H1.83341C0.91294 13.6666 0.166748 12.9204 0.166748 11.9999V3.99992C0.166748 3.07944 0.91294 2.33325 1.83341 2.33325H4.08806L4.9038 0.701776ZM5.57877 2.33325H9.42139L9.08806 1.66659H5.9121L5.57877 2.33325ZM1.83341 3.66659C1.64932 3.66659 1.50008 3.81582 1.50008 3.99992V11.9999C1.50008 12.184 1.64932 12.3333 1.83341 12.3333H13.1667C13.3508 12.3333 13.5001 12.184 13.5001 11.9999V3.99992C13.5001 3.81582 13.3508 3.66659 13.1667 3.66659H1.83341ZM4.16675 7.99992C4.16675 6.15896 5.65912 4.66659 7.50008 4.66659C9.34104 4.66659 10.8334 6.15896 10.8334 7.99992C10.8334 9.84088 9.34104 11.3333 7.50008 11.3333C5.65912 11.3333 4.16675 9.84088 4.16675 7.99992ZM7.50008 5.99992C6.3955 5.99992 5.50008 6.89534 5.50008 7.99992C5.50008 9.1045 6.3955 9.99992 7.50008 9.99992C8.60466 9.99992 9.50008 9.1045 9.50008 7.99992C9.50008 6.89534 8.60466 5.99992 7.50008 5.99992Z" fill="#F2F2F2"/>
</svg>
