<svg width="11" height="17" viewBox="0 0 11 17" fill="none" xmlns="http://www.w3.org/2000/svg">
<path d="M5.16591 0.5C7.46736 0.5 9.33301 2.36567 9.33301 4.66701C9.33301 6.96841 7.46736 8.8342 5.16591 8.8342C2.86446 8.8342 0.998807 6.96841 0.998807 4.66701C0.998807 2.36567 2.86446 0.5 5.16591 0.5ZM5.16591 6.38968C6.11725 6.38968 6.88849 5.61839 6.88849 4.66707C6.88849 3.71575 6.11725 2.94452 5.16591 2.94452C4.21457 2.94452 3.44332 3.71575 3.44332 4.66707C3.44332 5.61839 4.21457 6.38968 5.16591 6.38968Z" fill="white"/>
<path d="M3.71073 12.4539C2.00771 12.1052 0.987184 11.2946 0.933187 11.2511C0.434854 10.8494 0.354801 10.1177 0.754454 9.61671C1.15405 9.11582 1.88194 9.03536 2.3804 9.437C2.39093 9.44557 3.4794 10.2848 5.27032 10.2861C7.06117 10.2848 8.17265 9.44557 8.18319 9.437C8.68164 9.03536 9.40954 9.11582 9.80913 9.61671C10.2088 10.1177 10.1287 10.8494 9.6304 11.2511C9.57567 11.2952 8.51301 12.1269 6.76227 12.4674L9.20225 15.0305C9.64568 15.4927 9.63234 16.2287 9.17249 16.6744C8.94803 16.8919 8.65875 17 8.36971 17C8.06667 17 7.76393 16.881 7.53698 16.6444L5.27026 14.2174L2.77457 16.6601C2.32238 17.1139 1.59016 17.1132 1.13883 16.6588C0.68749 16.2045 0.688039 15.4684 1.14011 15.0147L3.71073 12.4539Z" fill="white"/>
<path d="M5.2706 10.286C5.27363 10.286 5.26765 10.2861 5.2706 10.2861C5.27356 10.2861 5.26758 10.286 5.2706 10.286Z" fill="white"/>
</svg>
