<svg width="16" height="14" viewBox="0 0 16 14" fill="none" xmlns="http://www.w3.org/2000/svg">
<path fill-rule="evenodd" clip-rule="evenodd" d="M0.666748 1C0.666748 0.631811 0.965225 0.333334 1.33341 0.333334H14.6667C15.0349 0.333334 15.3334 0.631811 15.3334 1V11C15.3334 11.3682 15.0349 11.6667 14.6667 11.6667H7.82413L4.63156 13.263C4.4249 13.3663 4.17947 13.3552 3.98293 13.2338C3.78638 13.1123 3.66675 12.8977 3.66675 12.6667V11.6667H1.33341C0.965225 11.6667 0.666748 11.3682 0.666748 11V1ZM2.00008 1.66667V10.3333H4.33341C4.7016 10.3333 5.00008 10.6318 5.00008 11V11.588L7.36861 10.4037C7.46118 10.3574 7.56325 10.3333 7.66675 10.3333H14.0001V1.66667H2.00008ZM4.66675 4.83333C5.03494 4.83333 5.33341 5.13181 5.33341 5.5V6.5C5.33341 6.86819 5.03494 7.16667 4.66675 7.16667C4.29856 7.16667 4.00008 6.86819 4.00008 6.5V5.5C4.00008 5.13181 4.29856 4.83333 4.66675 4.83333ZM8.00008 4.83333C8.36827 4.83333 8.66675 5.13181 8.66675 5.5V6.5C8.66675 6.86819 8.36827 7.16667 8.00008 7.16667C7.63189 7.16667 7.33341 6.86819 7.33341 6.5V5.5C7.33341 5.13181 7.63189 4.83333 8.00008 4.83333ZM11.3334 4.83333C11.7016 4.83333 12.0001 5.13181 12.0001 5.5V6.5C12.0001 6.86819 11.7016 7.16667 11.3334 7.16667C10.9652 7.16667 10.6667 6.86819 10.6667 6.5V5.5C10.6667 5.13181 10.9652 4.83333 11.3334 4.83333Z" fill="#828282"/>
</svg>
