<svg width="16" height="12" viewBox="0 0 16 12" fill="none" xmlns="http://www.w3.org/2000/svg">
<path d="M14.6667 0.333252C14.7658 0.33525 14.8598 0.35336 14.9537 0.397998C15.0505 0.444295 15.1357 0.514051 15.2001 0.599919C15.2423 0.662847 15.2324 0.643963 15.2001 0.599919C15.2864 0.715053 15.3334 0.856034 15.3334 0.999919C15.3332 0.964408 15.3317 0.948996 15.3334 0.999919V10.9999C15.3334 11.3681 15.0349 11.6666 14.6667 11.6666H1.33341C0.965225 11.6666 0.666748 11.3681 0.666748 10.9999V0.999919C0.666748 0.880567 0.699126 0.762057 0.760031 0.659698C0.884143 0.450572 1.09912 0.337976 1.33341 0.333252H14.6667ZM14.0001 2.33325L8.40008 6.53325C8.18675 6.69325 7.90141 6.70925 7.67368 6.58125L7.60008 6.53325L2.00008 2.33325V10.3333H14.0001V2.33325ZM3.33341 1.66659L8.00008 5.16659L12.6667 1.66659H3.33341Z" fill="#27AE60"/>
</svg>
