<svg width="100" height="20" viewBox="0 0 100 20" xmlns="http://www.w3.org/2000/svg">
<path d="M6.28216 18.8973H2.54549V9.58221H0V6.54941H2.54539V4.39137C2.54539 1.83407 3.67122 0 7.39778 0C8.18595 0 9.42334 0.158864 9.42334 0.158864V2.97498H8.12367C6.79941 2.97498 6.28236 3.37779 6.28236 4.49142V6.54941H9.37376L9.09847 9.58221H6.28226L6.28216 18.8973ZM14.856 6.30705C14.8016 6.30705 14.7456 6.30904 14.6901 6.31042C11.2253 6.31042 9.64002 8.9167 9.64002 12.6164C9.64002 17.277 11.6963 19.1423 14.7172 19.1423C16.4456 19.1423 17.5811 18.4148 18.2713 17.0572V18.8985H21.8254V6.5507H18.2713V8.44963C17.7078 7.22791 16.5405 6.32153 14.856 6.30705ZM15.7597 9.22481C17.215 9.22481 18.0885 10.2399 18.0885 11.9665L18.0918 13.7299C18.0918 14.8936 17.3704 16.2551 15.7597 16.2551C13.2836 16.2551 13.3497 13.5814 13.3497 12.6909C13.3497 9.69535 14.669 9.22481 15.7597 9.22481ZM23.2608 12.7253C23.2608 11.2248 23.189 6.31509 29.5856 6.31509C32.1533 6.31509 33.2254 7.13152 33.2254 7.13152L32.3637 9.80434C32.3637 9.80434 31.2929 9.2147 29.8976 9.2147C28.1106 9.2147 26.9703 10.2507 26.9703 12.0735L26.9722 13.3805C26.9722 15.1319 28.0725 16.3011 29.9013 16.3011C31.1724 16.3011 32.344 15.7059 32.344 15.7059L33.2035 18.3229C33.2035 18.3229 32.2232 19.1445 29.6035 19.1445C23.5129 19.1445 23.2609 14.7395 23.2609 12.7253H23.2608ZM54.0645 6.31042C57.5294 6.31042 59.1397 8.9167 59.1397 12.6164C59.1397 17.277 57.0833 19.1423 54.0624 19.1423C52.334 19.1423 51.0564 18.4149 50.3662 17.0572V18.8985L46.8568 18.8972V0.375442L50.5829 0.0504755V8.28234C51.1206 6.84215 52.888 6.31042 54.0646 6.31042H54.0645ZM53.0199 9.22481C51.5646 9.22481 50.5829 10.2399 50.5829 11.9665L50.5794 13.7299C50.5772 14.8936 51.2593 16.2551 53.0199 16.2551C55.496 16.2551 55.4299 13.5814 55.4299 12.6909C55.4299 9.69535 54.1107 9.22481 53.0199 9.22481ZM39.6905 6.32064C35.7605 6.32064 33.6858 8.46332 33.6858 12.2711V12.9785C33.6858 17.9207 36.5994 19.1931 40.073 19.1931C43.4493 19.1931 44.9775 18.2487 44.9775 18.2487L44.2803 15.7339C44.2803 15.7339 42.4826 16.4987 40.5197 16.4987C38.4848 16.4987 37.6097 15.9801 37.3854 14.0245H45.2754V12.007C45.2754 7.87655 42.9469 6.32054 39.6904 6.32054L39.6905 6.32064ZM39.7852 8.83886C41.1455 8.83886 42.027 9.67304 41.9786 11.6077H37.3922C37.4717 9.5715 38.4223 8.83896 39.7852 8.83896V8.83886ZM66.5693 6.30368C62.5335 6.30368 60.4089 8.57795 60.4089 12.6536C60.4089 18.2455 64.0713 19.1457 66.576 19.1457C70.2428 19.1457 72.6823 17.1716 72.6823 12.7043C72.6823 8.05475 69.9394 6.30368 66.5693 6.30368ZM66.5185 9.23493C68.2931 9.23493 68.9963 10.5631 68.9963 12.0748V13.3746C68.9963 15.206 68.0124 16.2653 66.5118 16.2653C65.1084 16.2653 64.1221 15.2744 64.1221 13.3746V12.0748C64.1221 10.0487 65.2957 9.23493 66.5185 9.23493ZM80.1053 6.30368C76.0695 6.30368 73.9449 8.57795 73.9449 12.6536C73.9449 18.2455 77.6073 19.1457 80.112 19.1457C83.7787 19.1457 86.2182 17.1716 86.2182 12.7043C86.2182 8.05475 83.4752 6.30368 80.1053 6.30368ZM80.0545 9.23493C81.8291 9.23493 82.5321 10.5631 82.5321 12.0748V13.3746C82.5321 15.206 81.5482 16.2653 80.0477 16.2653C78.6443 16.2653 77.658 15.2744 77.658 13.3746V12.0748C77.658 10.0487 78.8317 9.23493 80.0545 9.23493ZM87.6263 18.8973V0.375442L91.3632 0.0504755V12.465L95.0706 6.54941H99.017L95.1495 12.6762L99.1659 18.8973H95.2083L91.3632 12.8567V18.8973H87.6263Z" fill="#1877F2"/>
</svg>
