<svg width="14" height="14" viewBox="0 0 14 14" fill="none" xmlns="http://www.w3.org/2000/svg">
<path fill-rule="evenodd" clip-rule="evenodd" d="M6.39992 0.333252C6.13646 0.333252 5.89771 0.488408 5.79071 0.72916L3.59627 5.66665H2.40321C1.32216 5.65108 0.47253 6.52522 0.339268 7.51042C0.335262 7.54004 0.333252 7.56989 0.333252 7.59978V11.7998C0.333252 11.8297 0.335262 11.8595 0.339268 11.8891C0.478539 12.9188 1.36504 13.6816 2.40325 13.6664H3.98625C3.9908 13.6665 3.99535 13.6666 3.99992 13.6666H10.9686C11.8973 13.675 12.6911 12.9993 12.8309 12.0809L13.6589 6.68096L13.659 6.67996C13.7412 6.13846 13.5815 5.58826 13.2221 5.17498C12.8637 4.76276 12.3426 4.52827 11.7965 4.53325H8.86659V2.79992C8.86659 1.43761 7.76221 0.333252 6.39992 0.333252ZM4.66659 12.3333H10.9795C11.2454 12.3363 11.4729 12.1429 11.5128 11.8799L11.513 11.8789L12.3408 6.47988C12.3641 6.32536 12.3185 6.16784 12.2159 6.04986C12.1133 5.9318 11.9639 5.86477 11.8075 5.86654L11.7999 5.86663L8.19992 5.86659C7.83173 5.86659 7.53325 5.56811 7.53325 5.19992V2.79992C7.53325 2.31512 7.22885 1.90142 6.80076 1.73951L4.66659 6.5414V12.3333Z" fill="#27AE60"/>
</svg>
