<svg width="18" height="20" viewBox="0 0 18 20" fill="none" xmlns="http://www.w3.org/2000/svg">
<path fill-rule="evenodd" clip-rule="evenodd" d="M11 3.5C11 1.567 12.567 0 14.5 0C16.433 0 18 1.567 18 3.5C18 5.43298 16.433 7 14.5 7C13.5229 7 12.6392 6.59957 12.0043 5.95384L6.87307 9.06266C6.95579 9.36099 7 9.67533 7 10C7 10.2917 6.96432 10.575 6.8971 10.8459L12.1211 13.9328C12.7455 13.3539 13.5814 13 14.5 13C16.433 13 18 14.567 18 16.5C18 18.433 16.433 20 14.5 20C12.567 20 11 18.433 11 16.5C11 16.2084 11.0357 15.9251 11.1029 15.6542L5.87889 12.5673C5.2545 13.1461 4.41857 13.5 3.5 13.5C1.56702 13.5 0 11.933 0 10C0 8.06701 1.56702 6.5 3.5 6.5C4.38448 6.5 5.19234 6.82809 5.8085 7.3692L11.0667 4.18346C11.0229 3.96241 11 3.73389 11 3.5ZM14.5 2C13.6716 2 13 2.67158 13 3.5C13 4.32841 13.6716 5 14.5 5C15.3284 5 16 4.32841 16 3.5C16 2.67158 15.3284 2 14.5 2ZM3.5 8.5C2.67158 8.5 2 9.17159 2 10C2 10.8284 2.67158 11.5 3.5 11.5C4.32841 11.5 5 10.8284 5 10C5 9.17159 4.32841 8.5 3.5 8.5ZM14.5 15C13.6716 15 13 15.6716 13 16.5C13 17.3284 13.6716 18 14.5 18C15.3284 18 16 17.3284 16 16.5C16 15.6716 15.3284 15 14.5 15Z" fill="#828282"/>
</svg>
