<svg width="12" height="16" viewBox="0 0 12 16" fill="none" xmlns="http://www.w3.org/2000/svg">
<path d="M6 0.666748C9.12962 0.666748 11.6667 3.20379 11.6667 6.33341C11.6667 8.32379 10.7481 10.3365 9.21252 12.3005C8.66752 12.9975 8.07479 13.6474 7.46757 14.2394C7.41754 14.2881 7.36835 14.3356 7.32004 14.3818L7.04141 14.6432L6.78707 14.8724L6.55989 15.0686L6.42115 15.1835C6.17769 15.3819 5.82877 15.3835 5.58353 15.1873L5.43847 15.0672L5.21233 14.8719L4.95845 14.6431L4.67994 14.3818L4.53242 14.2394C3.9252 13.6474 3.33247 12.9975 2.78747 12.3005C1.25186 10.3365 0.333328 8.32379 0.333328 6.33341C0.333328 3.20379 2.87037 0.666748 6 0.666748ZM6 2.00008C3.60675 2.00008 1.66666 3.94017 1.66666 6.33341C1.66666 7.97085 2.46852 9.7279 3.83784 11.4792C4.3434 12.1258 4.89642 12.7322 5.46315 13.2846L5.73163 13.5415C5.82009 13.6245 5.90867 13.7076 6 13.7874L6.26832 13.5415L6.53684 13.2846C7.10357 12.7322 7.65659 12.1258 8.16215 11.4792C9.53147 9.7279 10.3333 7.97085 10.3333 6.33341C10.3333 3.94017 8.39324 2.00008 6 2.00008ZM6 3.66675C7.47275 3.66675 8.66666 4.86066 8.66666 6.33341C8.66666 7.80617 7.47275 9.00008 6 9.00008C4.52724 9.00008 3.33333 7.80617 3.33333 6.33341C3.33333 4.86066 4.52724 3.66675 6 3.66675ZM6 5.00008C5.26362 5.00008 4.66666 5.59704 4.66666 6.33341C4.66666 7.06979 5.26362 7.66675 6 7.66675C6.73637 7.66675 7.33333 7.06979 7.33333 6.33341C7.33333 5.59704 6.73637 5.00008 6 5.00008Z" fill="#4F4F4F"/>
</svg>
