<svg width="13" height="14" viewBox="0 0 13 14" fill="none" xmlns="http://www.w3.org/2000/svg">
<path d="M3.66549 0.895264H1.97459C0.657723 0.895264 -0.28649 2.14185 0.135008 3.39106C0.977471 5.8878 2.11037 8.09968 3.58649 9.57579C5.0626 11.0519 7.2745 12.1848 9.77126 13.0273C11.0204 13.4488 12.267 12.5046 12.267 11.1877V9.49652C12.267 9.01245 12.0047 8.56644 11.5816 8.33119L10.1085 7.51218L10.0016 7.45889C9.63959 7.2981 9.22224 7.30596 8.86424 7.48499L7.51672 8.15799L7.48474 8.14801C7.43151 8.13067 7.37168 8.10979 7.30626 8.08507C6.97123 7.95851 6.63562 7.7818 6.32481 7.54879C6.18997 7.44769 6.06251 7.33779 5.94349 7.21877C5.82299 7.09828 5.71175 6.96905 5.60945 6.83216C5.37724 6.52146 5.20064 6.18588 5.07374 5.85087L5.01054 5.67228L5.00006 5.63932L5.67351 4.29382C5.87029 3.90034 5.86025 3.43507 5.6467 3.05039L4.83123 1.58144C4.59609 1.15794 4.14984 0.895264 3.66549 0.895264ZM1.97459 2.2286H3.6655L4.48096 3.6975L3.69534 5.26878C3.62958 5.4003 3.60915 5.54987 3.63722 5.69421C3.73568 6.2004 4.00595 6.91389 4.54145 7.63038C4.68122 7.8174 4.83409 7.995 5.00069 8.16159C5.1653 8.3262 5.34058 8.47733 5.52501 8.6156C6.24303 9.15391 6.95826 9.42409 7.46588 9.52145C7.60971 9.54904 7.75861 9.5285 7.88959 9.46301L9.46058 8.67752L10.9337 9.49652V11.1877C10.9337 11.6094 10.5657 11.8881 10.1976 11.7639C7.87898 10.9816 5.8268 9.93051 4.5293 8.63299C3.23179 7.33548 2.18069 5.2833 1.39836 2.96478C1.27415 2.59664 1.55292 2.2286 1.97459 2.2286Z" fill="#27AE60"/>
</svg>
