<svg width="15" height="15" viewBox="0 0 15 15" fill="none" xmlns="http://www.w3.org/2000/svg">
<path fill-rule="evenodd" clip-rule="evenodd" d="M0.666656 7.00008C0.666656 3.50229 3.5022 0.666748 6.99999 0.666748C10.4978 0.666748 13.3333 3.50229 13.3333 7.00008C13.3333 8.50884 12.8057 9.89438 11.925 10.9823L14.3738 13.431C14.6341 13.6914 14.6341 14.1135 14.3738 14.3739C14.1134 14.6342 13.6913 14.6342 13.431 14.3739L10.9822 11.9251C9.89429 12.8058 8.50875 13.3334 6.99999 13.3334C3.5022 13.3334 0.666656 10.4979 0.666656 7.00008ZM6.99999 2.00008C4.23858 2.00008 1.99999 4.23867 1.99999 7.00008C1.99999 9.76149 4.23858 12.0001 6.99999 12.0001C9.7614 12.0001 12 9.76149 12 7.00008C12 4.23867 9.7614 2.00008 6.99999 2.00008Z" fill="#BDBDBD"/>
</svg>
