<svg width="21" height="20" viewBox="0 0 21 20" fill="none" xmlns="http://www.w3.org/2000/svg">
<g id="Icon/Fill/star">
<path id="Mask" fill-rule="evenodd" clip-rule="evenodd" d="M15.1347 17.5006C15.003 17.5006 14.8705 17.4698 14.7488 17.4064L10.4997 15.1864L6.25132 17.4064C5.96966 17.5523 5.62966 17.5273 5.37466 17.3406C5.11799 17.1539 4.99049 16.8381 5.04466 16.5256L5.85382 11.8356L2.42049 8.51477C2.19216 8.29394 2.10966 7.96227 2.20716 7.65894C2.30466 7.35727 2.56549 7.13644 2.88049 7.09144L7.63049 6.40144L9.75382 2.12977C10.0355 1.56311 10.9647 1.56311 11.2463 2.12977L13.3697 6.40144L18.1197 7.09144C18.4347 7.13644 18.6955 7.35727 18.793 7.65894C18.8905 7.96227 18.808 8.29394 18.5797 8.51477L15.1463 11.8356L15.9555 16.5256C16.0097 16.8381 15.8813 17.1539 15.6255 17.3406C15.4805 17.4473 15.308 17.5006 15.1347 17.5006Z" fill="#231F20"/>
<mask id="mask0" mask-type="alpha" maskUnits="userSpaceOnUse" x="2" y="1" width="17" height="17">
<path id="Mask_2" fill-rule="evenodd" clip-rule="evenodd" d="M15.1347 17.5006C15.003 17.5006 14.8705 17.4698 14.7488 17.4064L10.4997 15.1864L6.25132 17.4064C5.96966 17.5523 5.62966 17.5273 5.37466 17.3406C5.11799 17.1539 4.99049 16.8381 5.04466 16.5256L5.85382 11.8356L2.42049 8.51477C2.19216 8.29394 2.10966 7.96227 2.20716 7.65894C2.30466 7.35727 2.56549 7.13644 2.88049 7.09144L7.63049 6.40144L9.75382 2.12977C10.0355 1.56311 10.9647 1.56311 11.2463 2.12977L13.3697 6.40144L18.1197 7.09144C18.4347 7.13644 18.6955 7.35727 18.793 7.65894C18.8905 7.96227 18.808 8.29394 18.5797 8.51477L15.1463 11.8356L15.9555 16.5256C16.0097 16.8381 15.8813 17.1539 15.6255 17.3406C15.4805 17.4473 15.308 17.5006 15.1347 17.5006Z" fill="white"/>
</mask>
<g mask="url(#mask0)">
<g id="&#240;&#159;&#142;&#168; Color">
<rect id="Base" x="0.5" width="20" height="20" fill="#FFCF1A"/>
</g>
</g>
</g>
</svg>
