<svg width="20" height="20" viewBox="0 0 20 20" fill="none" xmlns="http://www.w3.org/2000/svg">
<g id="Icon/Outline/star">
<path id="Mask" fill-rule="evenodd" clip-rule="evenodd" d="M9.99946 13.3751C10.132 13.3751 10.2645 13.4068 10.3853 13.4693L13.5261 15.1109L12.9286 11.6468C12.8811 11.3751 12.972 11.0984 13.1703 10.9059L15.7003 8.45925L12.1978 7.94925C11.927 7.91008 11.6928 7.74092 11.5711 7.49592L9.99946 4.33425L8.42779 7.49592C8.30613 7.74092 8.07196 7.91008 7.80113 7.94925L4.29863 8.45925L6.82863 10.9059C7.02696 11.0984 7.11779 11.3751 7.07029 11.6468L6.47279 15.1109L9.61363 13.4693C9.73446 13.4068 9.86696 13.3751 9.99946 13.3751ZM14.6345 17.4626C14.502 17.4626 14.3695 17.4317 14.2486 17.3684L9.99946 15.1484L5.75029 17.3684C5.46863 17.5151 5.12863 17.4892 4.87446 17.3026C4.61779 17.1159 4.49029 16.8001 4.54363 16.4876L5.35363 11.7976L1.92029 8.47675C1.69113 8.25591 1.60946 7.92425 1.70696 7.62175C1.80363 7.31925 2.06529 7.09925 2.37946 7.05341L7.13029 6.36341L9.25279 2.09175C9.53446 1.52508 10.4645 1.52508 10.7461 2.09175L12.8686 6.36341L17.6195 7.05341C17.9336 7.09925 18.1953 7.31925 18.292 7.62175C18.3895 7.92425 18.3078 8.25591 18.0786 8.47675L14.6453 11.7976L15.4553 16.4876C15.5086 16.8001 15.3811 17.1159 15.1245 17.3026C14.9803 17.4092 14.8078 17.4626 14.6345 17.4626Z" fill="#333333"/>
<mask id="mask0" mask-type="alpha" maskUnits="userSpaceOnUse" x="1" y="1" width="18" height="17">
<path id="Mask_2" fill-rule="evenodd" clip-rule="evenodd" d="M9.99946 13.3751C10.132 13.3751 10.2645 13.4068 10.3853 13.4693L13.5261 15.1109L12.9286 11.6468C12.8811 11.3751 12.972 11.0984 13.1703 10.9059L15.7003 8.45925L12.1978 7.94925C11.927 7.91008 11.6928 7.74092 11.5711 7.49592L9.99946 4.33425L8.42779 7.49592C8.30613 7.74092 8.07196 7.91008 7.80113 7.94925L4.29863 8.45925L6.82863 10.9059C7.02696 11.0984 7.11779 11.3751 7.07029 11.6468L6.47279 15.1109L9.61363 13.4693C9.73446 13.4068 9.86696 13.3751 9.99946 13.3751ZM14.6345 17.4626C14.502 17.4626 14.3695 17.4317 14.2486 17.3684L9.99946 15.1484L5.75029 17.3684C5.46863 17.5151 5.12863 17.4892 4.87446 17.3026C4.61779 17.1159 4.49029 16.8001 4.54363 16.4876L5.35363 11.7976L1.92029 8.47675C1.69113 8.25591 1.60946 7.92425 1.70696 7.62175C1.80363 7.31925 2.06529 7.09925 2.37946 7.05341L7.13029 6.36341L9.25279 2.09175C9.53446 1.52508 10.4645 1.52508 10.7461 2.09175L12.8686 6.36341L17.6195 7.05341C17.9336 7.09925 18.1953 7.31925 18.292 7.62175C18.3895 7.92425 18.3078 8.25591 18.0786 8.47675L14.6453 11.7976L15.4553 16.4876C15.5086 16.8001 15.3811 17.1159 15.1245 17.3026C14.9803 17.4092 14.8078 17.4626 14.6345 17.4626Z" fill="white"/>
</mask>
<g mask="url(#mask0)">
<g id="&#240;&#159;&#142;&#168; Color">
<rect id="Base" width="20" height="20" fill="#FFCF1A"/>
</g>
</g>
</g>
</svg>
