<svg width="14" height="14" viewBox="0 0 14 14" fill="none" xmlns="http://www.w3.org/2000/svg">
<path fill-rule="evenodd" clip-rule="evenodd" d="M7.60008 13.6667C7.86354 13.6667 8.10229 13.5116 8.20929 13.2708L10.4037 8.33335H11.5968C12.6778 8.34892 13.5275 7.47478 13.6607 6.48958C13.6647 6.45996 13.6667 6.43011 13.6667 6.40022V2.20022C13.6667 2.17033 13.6647 2.14047 13.6607 2.11086C13.5215 1.08123 12.635 0.318405 11.5968 0.333551H10.0137C10.0092 0.33346 10.0046 0.333414 10.0001 0.333414H3.03138C2.10275 0.324991 1.30893 1.00074 1.16911 1.9191L0.341115 7.31904L0.340962 7.32004C0.258776 7.86154 0.418546 8.41174 0.777898 8.82502C1.13633 9.23724 1.65735 9.47173 2.20347 9.46675H5.13341V11.2001C5.13341 12.5624 6.23779 13.6667 7.60008 13.6667ZM9.33341 1.66675H3.02054C2.75462 1.66374 2.52709 1.85708 2.48721 2.12005L2.48705 2.12112L1.6592 7.52012C1.63591 7.67464 1.68147 7.83216 1.78406 7.95014C1.88671 8.0682 2.03608 8.13523 2.19251 8.13346L2.20008 8.13337L5.80008 8.13341C6.16827 8.13341 6.46675 8.43189 6.46675 8.80008V11.2001C6.46675 11.6849 6.77115 12.0986 7.19924 12.2605L9.33341 7.4586V1.66675Z" fill="#FF2C2C"/>
</svg>
