<svg width="103" height="12" viewBox="0 0 103 12" fill="none" xmlns="http://www.w3.org/2000/svg">
<path fill-rule="evenodd" clip-rule="evenodd" d="M33.86 5.5C33.86 8.74 31.43 11 28.08 11C24.73 11 22.3 8.74 22.3 5.5C22.3 2.26 24.73 0 28.08 0C31.43 0 33.86 2.26 33.86 5.5ZM24.89 5.5C24.89 7.47 26.19 8.8 28.08 8.8C29.97 8.8 31.27 7.47 31.27 5.5C31.27 3.52 29.97 2.25 28.08 2.25C26.19 2.25 24.89 3.53 24.89 5.5ZM7.75005 5.29C8.70005 4.85 9.31005 4.11 9.31005 2.96C9.31005 1.23 7.73004 0 5.44004 0H0.170044V11H5.67004C8.04004 11 9.69004 9.71 9.69004 7.95C9.69004 6.62 8.82005 5.63 7.75005 5.29ZM2.60004 2.01H5.43005C6.28005 2.01 6.87004 2.51 6.87004 3.21C6.87004 3.91 6.27005 4.41 5.43005 4.41H2.60004V2.01ZM5.67004 9H2.61005V6.3H5.67004C6.63004 6.3 7.26004 6.85 7.26004 7.66C7.26004 8.47 6.63004 8.99 5.67004 8.99V9ZM18.84 11H22.03L16.97 5.29L21.61 0H18.71L15.03 4.27H14.43V0H12V11H14.44V6.62H15.03L18.84 11ZM43.47 0V4.34H38.54V0H36.1V11H38.53V6.56H43.46V11H45.89V0H43.47ZM53.9 11H51.46V2.22H47.66V0H57.7V2.22H53.9V11ZM63.4 0C61.29 0 59.49 0.89 58.88 2.8L61.12 3.17C61.46 2.5 62.17 1.97 63.27 1.97C64.6 1.97 65.33 2.81 65.44 4.25H63.12C59.89 4.25 58.33 5.67 58.33 7.7C58.33 9.75 59.92 11 62.11 11C63.91 11 65.11 10.28 65.64 9.37L66.14 11H67.9V4.82C67.9 1.63 66.16 0 63.4 0ZM62.68 9C61.49 9 60.78 8.5 60.78 7.6C60.78 6.75 61.35 6.16 63.21 6.16H65.56C65.56 7.96 64.37 9 62.68 9ZM80.67 11H77.47L73.67 6.62H73.07V11H70.64V0H73.07V4.27H73.67L77.34 0H80.24L75.61 5.29L80.67 11ZM84.55 11H86.98V2.22H90.78V0H80.74V2.22H84.54L84.55 11ZM97.1001 0C100.44 0 102.66 2.4 102.66 5.37C102.66 5.67 102.64 5.92 102.62 6.16H94.08C94.3101 7.85 95.44 8.85 97.25 8.85C98.54 8.85 99.4 8.45 99.93 7.65L102.22 8.04C101.34 10.05 99.3901 11 97.1001 11C96.3687 11.0326 95.6385 10.9127 94.9559 10.6479C94.2733 10.3832 93.6533 9.97935 93.1351 9.46214C92.617 8.94492 92.212 8.3256 91.946 7.6435C91.68 6.96141 91.5588 6.23145 91.59 5.5C91.59 2.38 93.7601 0 97.1001 0ZM100.02 4.25C99.62 2.88 98.62 2.1 97.1001 2.1C95.62 2.1 94.6301 2.84 94.23 4.25H100.02Z" fill="#19191A"/>
</svg>
