<svg width="17" height="10" viewBox="0 0 17 10"  xmlns="http://www.w3.org/2000/svg">
<path fill-rule="evenodd" clip-rule="evenodd" d="M2.50002 0.499998H0.750024C0.250024 0.499998 0.150024 0.739998 0.150024 0.999998C0.150024 1.46 0.750024 3.76 2.91002 6.8C4.36002 8.87 6.40002 10 8.25002 10C9.36002 10 9.50002 9.75 9.50002 9.32V7.75C9.50002 7.25 9.60002 7.15 9.96002 7.15C10.22 7.15 10.66 7.28 11.7 8.28C12.89 9.47 13.08 10 13.75 10H15.5C16 10 16.25 9.75 16.1 9.26C15.95 8.76 15.38 8.06 14.63 7.21C14.23 6.72 13.61 6.21 13.43 5.95C13.17 5.61 13.23 5.46 13.43 5.17C13.43 5.17 15.56 2.17 15.78 1.14C15.89 0.769998 15.78 0.499998 15.25 0.499998H13.5C13.3364 0.490211 13.1739 0.533613 13.037 0.623725C12.9 0.713838 12.7958 0.845829 12.74 0.999998C12.74 0.999998 11.84 3.16 10.59 4.57C10.18 4.98 9.99003 5.11 9.77003 5.11C9.67002 5.11 9.50002 4.98 9.50002 4.61V1.14C9.50002 0.699998 9.37002 0.499998 9.00002 0.499998H6.25002C5.97002 0.499998 5.80002 0.699998 5.80002 0.899998C5.80002 1.32 6.44002 1.42 6.50002 2.6V5.18C6.50002 5.75 6.40002 5.85 6.18002 5.85C5.58002 5.85 4.14002 3.67 3.28002 1.18C3.12002 0.699998 2.95002 0.499998 2.50002 0.499998Z" fill="white"/>
</svg>
